<svg width="81" height="83" viewBox="0 0 81 83" fill="none" xmlns="http://www.w3.org/2000/svg">
<path d="M29.6965 34.692C39.0685 34.692 46.666 26.9259 46.666 17.346C46.666 7.76606 39.0685 0 29.6965 0C20.3246 0 12.7271 7.76606 12.7271 17.346C12.7271 26.9259 20.3246 34.692 29.6965 34.692Z" fill="white"/>
<path d="M29.6965 82.3978C46.0974 82.3978 59.393 74.6317 59.393 65.0518C59.393 55.4719 46.0974 47.7058 29.6965 47.7058C13.2956 47.7058 0 55.4719 0 65.0518C0 74.6317 13.2956 82.3978 29.6965 82.3978Z" fill="white"/>
<path d="M80.5991 65.0496C80.5991 72.2344 71.9637 78.0587 61.4202 78.0587C64.5265 74.5882 66.6625 70.2318 66.6625 65.0553C66.6625 59.8732 64.5214 55.5128 61.4092 52.0402C71.9527 52.0402 80.5991 57.8645 80.5991 65.0496Z" fill="white"/>
<path d="M67.872 17.3491C67.872 24.5341 62.174 30.3586 55.1449 30.3586C53.6121 30.3586 52.143 30.0816 50.782 29.574C52.7891 25.9657 53.9354 21.7918 53.9354 17.3443C53.9354 12.9 52.7908 8.72904 50.7863 5.12251C52.146 4.61596 53.6138 4.3396 55.1449 4.3396C62.174 4.3396 67.872 10.1642 67.872 17.3491Z" fill="white"/>
</svg>
